HIERARCHY
ROOT Hips
{
    OFFSET   0.000000   0.000000   0.000000
    CHANNELS 6 Xposition Yposition Zposition Zrotation Xrotation Yrotation
    JOINT Chest
    {
        OFFSET   0.000000   8.007230   0.000000
        CHANNELS 3 Zrotation Xrotation Yrotation
        JOINT Chest2
        {
            OFFSET   0.000000  22.077100   0.000000
            CHANNELS 3 Zrotation Xrotation Yrotation
            JOINT Neck
            {
                OFFSET   0.000000  23.254700   0.000000
                CHANNELS 3 Zrotation Xrotation Yrotation
                JOINT Head
                {
                    OFFSET   0.000010  14.370000   1.956610
                    CHANNELS 3 Zrotation Xrotation Yrotation
                    End Site
                    {
                        OFFSET   0.000000  19.566000   0.000000
                    }
                }
            }
            JOINT LeftCollar
            {
                OFFSET   3.911900  19.017000  -0.467063
                CHANNELS 3 Zrotation Xrotation Yrotation
                JOINT LeftShoulder
                {
                    OFFSET  10.383700   0.000000   0.000000
                    CHANNELS 3 Zrotation Xrotation Yrotation
                    JOINT LeftElbow
                    {
                        OFFSET  26.662100   0.001671   0.000522
                        CHANNELS 3 Zrotation Xrotation Yrotation
                        JOINT LeftWrist
                        {
                            OFFSET  28.869000   0.000037  -0.000114
                            CHANNELS 3 Zrotation Xrotation Yrotation
                            JOINT LeftFinger0
                            {
                                OFFSET   2.044650  -2.323450   3.252850
                                CHANNELS 3 Zrotation Xrotation Yrotation
                                JOINT LeftFinger01
                                {
                                    OFFSET   3.088140   0.000000   0.000000
                                    CHANNELS 3 Zrotation Xrotation Yrotation
                                    JOINT LeftFinger02
                                    {
                                        OFFSET   2.639460   0.000000   0.000000
                                        CHANNELS 3 Zrotation Xrotation Yrotation
                                        End Site
                                        {
                                            OFFSET   2.582190   0.000000   0.000000
                                        }
                                    }
                                }
                            }
                            JOINT LeftFinger1
                            {
                                OFFSET   8.364480   0.000000   3.252850
                                CHANNELS 3 Zrotation Xrotation Yrotation
                                JOINT LeftFinger11
                                {
                                    OFFSET   4.646930   0.000000   0.000000
                                    CHANNELS 3 Zrotation Xrotation Yrotation
                                    JOINT LeftFinger12
                                    {
                                        OFFSET   2.323470   0.000000   0.000000
                                        CHANNELS 3 Zrotation Xrotation Yrotation
                                        End Site
                                        {
                                            OFFSET   2.273050   0.000000   0.000000
                                        }
                                    }
                                }
                            }
                            JOINT LeftFinger2
                            {
                                OFFSET   8.364490   0.000016   1.078090
                                CHANNELS 3 Zrotation Xrotation Yrotation
                                JOINT LeftFinger21
                                {
                                    OFFSET   5.111620   0.000000   0.000000
                                    CHANNELS 3 Zrotation Xrotation Yrotation
                                    JOINT LeftFinger22
                                    {
                                        OFFSET   2.788150   0.000013   0.000000
                                        CHANNELS 3 Zrotation Xrotation Yrotation
                                        End Site
                                        {
                                            OFFSET   2.727660   0.000000   0.000000
                                        }
                                    }
                                }
                            }
                            JOINT LeftFinger3
                            {
                                OFFSET   7.899780   0.000016  -1.078090
                                CHANNELS 3 Zrotation Xrotation Yrotation
                                JOINT LeftFinger31
                                {
                                    OFFSET   4.646930   0.000000   0.000000
                                    CHANNELS 3 Zrotation Xrotation Yrotation
                                    JOINT LeftFinger32
                                    {
                                        OFFSET   2.323470   0.000000   0.000000
                                        CHANNELS 3 Zrotation Xrotation Yrotation
                                        End Site
                                        {
                                            OFFSET   2.273050   0.000000   0.000000
                                        }
                                    }
                                }
                            }
                            JOINT LeftFinger4
                            {
                                OFFSET   7.435080   0.000000  -3.252850
                                CHANNELS 3 Zrotation Xrotation Yrotation
                                JOINT LeftFinger41
                                {
                                    OFFSET   3.717550   0.000000   0.000000
                                    CHANNELS 3 Zrotation Xrotation Yrotation
                                    JOINT LeftFinger42
                                    {
                                        OFFSET   1.858760   0.000000   0.000000
                                        CHANNELS 3 Zrotation Xrotation Yrotation
                                        End Site
                                        {
                                            OFFSET   1.818440   0.000000   0.000000
                                        }
                                    }
                                }
                            }
                        }
                    }
                }
            }
            JOINT RightCollar
            {
                OFFSET  -3.911900  19.017000  -0.467064
                CHANNELS 3 Zrotation Xrotation Yrotation
                JOINT RightShoulder
                {
                    OFFSET -10.383700   0.000000   0.000000
                    CHANNELS 3 Zrotation Xrotation Yrotation
                    JOINT RightElbow
                    {
                        OFFSET -26.662100   0.001633   0.000260
                        CHANNELS 3 Zrotation Xrotation Yrotation
                        JOINT RightWrist
                        {
                            OFFSET -28.869000  -0.000045  -0.000080
                            CHANNELS 3 Zrotation Xrotation Yrotation
                            JOINT RightFinger0
                            {
                                OFFSET  -2.044660  -2.323490   3.252850
                                CHANNELS 3 Zrotation Xrotation Yrotation
                                JOINT RightFinger01
                                {
                                    OFFSET  -3.088140   0.000000   0.000000
                                    CHANNELS 3 Zrotation Xrotation Yrotation
                                    JOINT RightFinger02
                                    {
                                        OFFSET  -2.639450   0.000000   0.000000
                                        CHANNELS 3 Zrotation Xrotation Yrotation
                                        End Site
                                        {
                                            OFFSET  -2.582190   0.000000   0.000000
                                        }
                                    }
                                }
                            }
                            JOINT RightFinger1
                            {
                                OFFSET  -8.364480   0.000000   3.252850
                                CHANNELS 3 Zrotation Xrotation Yrotation
                                JOINT RightFinger11
                                {
                                    OFFSET  -4.646920   0.000000   0.000000
                                    CHANNELS 3 Zrotation Xrotation Yrotation
                                    JOINT RightFinger12
                                    {
                                        OFFSET  -2.323470   0.000000   0.000000
                                        CHANNELS 3 Zrotation Xrotation Yrotation
                                        End Site
                                        {
                                            OFFSET  -2.273050   0.000000   0.000000
                                        }
                                    }
                                }
                            }
                            JOINT RightFinger2
                            {
                                OFFSET  -8.364480   0.000000   1.078090
                                CHANNELS 3 Zrotation Xrotation Yrotation
                                JOINT RightFinger21
                                {
                                    OFFSET  -5.111610   0.000000   0.000000
                                    CHANNELS 3 Zrotation Xrotation Yrotation
                                    JOINT RightFinger22
                                    {
                                        OFFSET  -2.788160   0.000000   0.000000
                                        CHANNELS 3 Zrotation Xrotation Yrotation
                                        End Site
                                        {
                                            OFFSET  -2.727660   0.000000   0.000000
                                        }
                                    }
                                }
                            }
                            JOINT RightFinger3
                            {
                                OFFSET  -7.899780   0.000000  -1.078090
                                CHANNELS 3 Zrotation Xrotation Yrotation
                                JOINT RightFinger31
                                {
                                    OFFSET  -4.646930   0.000000   0.000000
                                    CHANNELS 3 Zrotation Xrotation Yrotation
                                    JOINT RightFinger32
                                    {
                                        OFFSET  -2.323470   0.000000   0.000000
                                        CHANNELS 3 Zrotation Xrotation Yrotation
                                        End Site
                                        {
                                            OFFSET  -2.273050   0.000000   0.000000
                                        }
                                    }
                                }
                            }
                            JOINT RightFinger4
                            {
                                OFFSET  -7.435090   0.000000  -3.252850
                                CHANNELS 3 Zrotation Xrotation Yrotation
                                JOINT RightFinger41
                                {
                                    OFFSET  -3.717550   0.000000   0.000000
                                    CHANNELS 3 Zrotation Xrotation Yrotation
                                    JOINT RightFinger42
                                    {
                                        OFFSET  -1.858760   0.000000   0.000000
                                        CHANNELS 3 Zrotation Xrotation Yrotation
                                        End Site
                                        {
                                            OFFSET  -1.818440   0.000000   0.000000
                                        }
                                    }
                                }
                            }
                        }
                    }
                }
            }
        }
    }
    JOINT LeftHip
    {
        OFFSET   9.782990   0.000000   0.000000
        CHANNELS 3 Zrotation Xrotation Yrotation
        JOINT LeftKnee
        {
            OFFSET  -0.000063 -41.789100   0.001657
            CHANNELS 3 Zrotation Xrotation Yrotation
            JOINT LeftAnkle
            {
                OFFSET   0.000078 -41.133200  -0.000113
                CHANNELS 3 Zrotation Xrotation Yrotation
                JOINT LeftToe
                {
                    OFFSET   0.000000  -6.358970  14.674500
                    CHANNELS 3 Zrotation Xrotation Yrotation
                    End Site
                    {
                        OFFSET   0.000000   0.000000   3.913200
                    }
                }
            }
        }
    }
    JOINT RightHip
    {
        OFFSET  -9.782990   0.000000   0.000000
        CHANNELS 3 Zrotation Xrotation Yrotation
        JOINT RightKnee
        {
            OFFSET   0.000053 -41.789200   0.000277
            CHANNELS 3 Zrotation Xrotation Yrotation
            JOINT RightAnkle
            {
                OFFSET   0.000030 -41.133200  -0.000150
                CHANNELS 3 Zrotation Xrotation Yrotation
                JOINT RightToe
                {
                    OFFSET   0.000000  -6.358960  14.674500
                    CHANNELS 3 Zrotation Xrotation Yrotation
                    End Site
                    {
                        OFFSET   0.000000   0.000000   3.913200
                    }
                }
            }
        }
    }
}
MOTION
Frames: 4
Frame Time:   0.016667
  1.063230  89.326400  -3.745800   1.489000 -24.621500  11.969400  -0.839944  15.233800   5.066370  -3.316060  30.320100  10.987600   4.420170  -1.757030   0.135749   7.280400  -3.498990 -20.893900  -4.364920  -9.184750  -2.960380 -67.761500  26.569400 -14.152300  -0.353074 -10.362500 -15.332500  12.794000  -7.334800   1.879940  36.473800  26.809200 -56.194200 -32.016500   0.000337   0.005127 -11.008300   0.000594   0.001295 -29.318500   6.432660 -11.282200 -24.508300  -0.004207   0.000371 -17.155800  -0.003562  -0.002444 -28.800500  -0.088990   0.161634 -43.216500   0.001289   0.000117 -28.782200   0.002015  -0.000917 -28.530000  -0.088160   0.162202 -36.475600   0.002593  -0.002544 -24.292800   0.002740   0.000236 -33.953900  -0.103123   0.153056 -50.931000   0.000530   0.002080 -33.920100   0.001486  -0.002916  10.376500  -9.021290  12.300600  46.714400 -12.345000  51.463500 -38.951600 -24.361900  36.017500   6.902090 -19.935400  -3.818660 -22.906400  56.165000  54.174200  80.133200  -0.001072   0.000264  46.708800  -0.000343   0.007078   1.905360   0.527987  15.486500   1.618170  -0.006147   0.001604   1.132720  -0.004268   0.003815  82.650800  -0.001898  -0.011018  82.650800  -0.005346   0.003099  61.988100  -0.000679   0.004439  83.073600  -4.963980  -0.602316  83.099700  -0.003147   0.001738  62.324700   0.003264   0.002067  88.984600  -9.994310  -0.176319 110.000000  -0.000853   0.000000  79.999900  -0.004014   0.000293   2.829760  24.531500   5.018380   1.803570   0.910109  -5.185500  -1.424550  -1.695450   1.141370   0.000000   0.000000   0.000000   4.472450  21.126600  -5.980300  -2.011380  12.988000 -13.067500   1.003090  -9.672320  -6.236320   0.000000   0.000000   0.000000
  1.032880  89.326300  -3.746320   1.482100 -24.595400  11.965000  -0.847405  15.218500   5.037760  -3.320830  30.290200  10.927300   4.466430  -1.807770   0.139793   7.359690  -3.598960 -20.926900  -4.350710  -9.189280  -2.977520 -67.625900  26.536000 -14.235300  -0.291200 -10.084700 -15.587900  12.799600  -7.375020   1.826290  36.575700  26.989600 -56.225300 -31.988800   0.000321   0.005442 -10.994400   0.000589   0.001239 -29.324900   6.429840 -11.276400 -24.513000  -0.004187   0.000448 -17.159100  -0.003559  -0.002429 -28.816400  -0.092041   0.167006 -43.240900   0.001345   0.000124 -28.798400   0.002008  -0.000865 -28.530300  -0.091116   0.167670 -36.429200   0.002626  -0.002517 -24.261900   0.002739   0.000272 -33.959600  -0.106612   0.158161 -50.939500   0.000500   0.002164 -33.925800   0.001446  -0.002899  10.412500  -9.036770  12.298800  46.630300 -12.244300  51.384700 -38.960300 -24.329000  36.073600   6.975780 -19.833200  -3.819930 -22.868600  56.025400  53.862200  80.084100  -0.000825   0.000391  46.676100  -0.000169   0.007313   1.877790   0.520915  15.511600   1.595170  -0.006538   0.001664   1.116620  -0.004551   0.003984  82.520800  -0.001948  -0.011311  82.520800  -0.005671   0.003241  61.890600  -0.000685   0.004741  82.870800  -4.962290  -0.619935  82.897700  -0.003306   0.001917  62.173200   0.003537   0.002317  88.984600  -9.994200  -0.176315 110.000000  -0.000789  -0.000032  79.999900  -0.003901   0.000295   2.843980  24.506600   5.032890   1.806350   0.878905  -5.212060  -1.432020  -1.676350   1.145570   0.000000   0.000000   0.000000   4.498020  21.064500  -5.998490  -2.024070  13.051200 -13.028600   0.992392  -9.708510  -6.268930  -0.000000   0.000000   0.000000
  1.001160  89.325800  -3.746390   1.469110 -24.563800  11.948900  -0.852767  15.196100   5.015110  -3.322270  30.245800  10.878700   4.486710  -1.849720   0.141385   7.392300  -3.682060 -20.945500  -4.343900  -9.192220  -3.002970 -67.493600  26.520800 -14.323700  -0.219689  -9.806680 -15.812100  12.819900  -7.380910   1.780040  36.649600  27.124300 -56.221600 -31.977400   0.000304   0.005776 -10.988700   0.000584   0.001183 -29.336000   6.425690 -11.264000 -24.521100  -0.004168   0.000527 -17.164800  -0.003557  -0.002414 -28.841000  -0.096370   0.174692 -43.261600   0.001401   0.000133 -28.812200   0.002003  -0.000813 -28.530600  -0.095324   0.175439 -36.391100   0.002659  -0.002489 -24.236500   0.002738   0.000309 -33.965000  -0.111578   0.165443 -50.947700   0.000471   0.002248 -33.931200   0.001405  -0.002882  10.440200  -9.053370  12.289200  46.583800 -12.106300  51.292100 -38.962000 -24.283100  36.176900   7.010980 -19.719900  -3.824060 -22.645400  55.775500  53.357600  80.035600  -0.000582   0.000515  46.643800   0.000000   0.007537   1.848880   0.513468  15.687100   1.572170  -0.006940   0.001735   1.100530  -0.004842   0.004166  82.390000  -0.002006  -0.011601  82.390000  -0.006010   0.003395  61.792500  -0.000687   0.005058  82.714600  -4.960250  -0.633287  82.742000  -0.003478   0.002109  62.056500   0.003815   0.002576  88.984600  -9.994100  -0.176310 110.000000  -0.000729  -0.000064  79.999900  -0.003786   0.000296   2.848640  24.463200   5.064490   1.818600   0.872440  -5.231530  -1.438760  -1.670660   1.149780  -0.000000   0.000000   0.000000   4.525260  21.006200  -6.007810  -2.033670  13.097000 -12.981100   0.980356  -9.736660  -6.296640   0.000000   0.000000   0.000000
  0.971411  89.323000  -3.746280   1.438590 -24.533800  11.889800  -0.854797  15.168100   5.005090  -3.320820  30.190100  10.855800   4.484470  -1.883410   0.141191   7.379680  -3.749390 -20.945100  -4.352380  -9.196730  -3.043680 -67.356400  26.517400 -14.418700  -0.145634  -9.556440 -15.993900  12.851700  -7.332800   1.737940  36.691400  27.189100 -56.180400 -31.977800   0.000292   0.006133 -10.988900   0.000587   0.001125 -29.363400   6.424620 -11.252900 -24.542700  -0.004144   0.000607 -17.179900  -0.003556  -0.002396 -28.871000  -0.100414   0.181914 -43.305700   0.001459   0.000145 -28.841500   0.002000  -0.000766 -28.530800  -0.099249   0.182682 -36.382500   0.002693  -0.002460 -24.230800   0.002733   0.000348 -33.989700  -0.116243   0.172261 -50.984700   0.000435   0.002334 -33.955800   0.001359  -0.002861  10.465500  -9.079670  12.265900  46.503700 -11.918700  51.169800 -38.963800 -24.271300  36.282600   6.951810 -19.613800  -3.830300 -22.420800  55.464600  52.904600  80.005300  -0.000352   0.000662  46.623600   0.000152   0.007749   2.017160   0.572845  16.245700   1.719740  -0.007152   0.001776   1.203840  -0.004987   0.004364  82.316400  -0.002081  -0.011893  82.316400  -0.006361   0.003549  61.737300  -0.000684   0.005379  82.685100  -4.958770  -0.635548  82.712700  -0.003670   0.002320  62.034500   0.004102   0.002831  88.984600  -9.994000  -0.176311 110.000000  -0.000672  -0.000032  79.999900  -0.003719   0.000288   2.848790  24.425000   5.110950   1.838540   0.871988  -5.210940  -1.443630  -1.672900   1.138580  -0.000000   0.000000  -0.000000   4.544110  20.950200  -5.988070  -2.027610  13.134800 -12.934800   0.961615  -9.754100  -6.304770  -0.000000   0.000000   0.000000
